# xmcd
#
# Track frame offsets:
#	150
#	32425
#	53446
#	62760
#	86394
#	106425
#	132673
#	150467
#	173501
#	194074
#	212562
#	247799
#	275367
#	306516
#
# Disc length: 4149 seconds
#
# Revision: 0
# Processed by: cddbd v1.5.1PL0 Copyright (c) Steve Scherf et al.
# Submitted via: EasyCDDAExtractor 8.1.0.1
#
DISCID=b710330e
DTITLE=Muddy Waters - live in Chicago, 1979
DYEAR=1979
DGENRE=Blues
TTITLE0=Last nite
TTITLE1=Harry's groove
TTITLE2=Instrumental with spoken intro by Muddy Waters
TTITLE3=Nine below zero
TTITLE4=Baby please don't go
TTITLE5=The call me Muddy Waters
TTITLE6=Everithing's gonna be all right
TTITLE7=Mannish boy
TTITLE8=Lonesome in my bedroom
TTITLE9=Corinne Corrina
TTITLE10=Kansas City
TTITLE11=Caldonia
TTITLE12=Long distance call
TTITLE13=Hold it
EXTD=
EXTT0=
EXTT1=
EXTT2=
EXTT3=
EXTT4=
EXTT5=
EXTT6=
EXTT7=
EXTT8=
EXTT9=
EXTT10=
EXTT11=
EXTT12=
EXTT13=
PLAYORDER=
